<svg width="103" height="40" viewBox="0 0 103 40" fill="none" xmlns="http://www.w3.org/2000/svg">
<g clip-path="url(#clip0_34466_185616)">
<path d="M94.3795 31.7288C99.4994 31.7288 102.45 28.0984 102.45 24.1313C102.45 19.5279 98.9305 18.1057 95.9794 17.17C93.8106 16.4589 91.8906 16.0098 91.8906 14.5876C91.8906 13.5023 92.7795 12.6415 94.2728 12.6415C95.7661 12.6415 97.0461 13.5023 97.8638 14.887L102.095 11.4813C100.388 9.46026 98.1483 7.77609 94.2373 7.77609C89.7218 7.77609 86.5574 10.845 86.5574 14.887C86.5574 19.4904 89.9707 20.8004 92.8862 21.6986C95.0195 22.3723 96.975 22.8214 96.975 24.2436C96.975 25.4038 95.9794 26.4517 94.3795 26.4517C92.744 26.4517 91.1795 25.4412 90.1485 23.6073L85.5263 27.4248C87.4818 29.7826 89.9707 31.7288 94.3795 31.7288ZM76.8865 13.2403C78.8065 13.2403 80.1931 14.6251 80.1931 16.7209C80.1931 18.7794 78.7709 20.1641 76.8865 20.1641H74.8599V13.2403H76.8865ZM69.5978 31.3919H74.8955V25.2915H77.0999C82.3264 25.2915 85.5974 21.3618 85.5974 16.6835C85.5974 12.0427 82.2909 8.18778 77.1354 8.18778H69.5978V31.3919ZM61.8469 31.3919H67.1801V8.18778H61.8469V31.3919ZM50.4693 31.6913C55.1981 31.6913 58.7892 28.9967 60.638 25.1418L55.767 22.4097C54.8781 24.6178 53.0648 26.1897 50.4338 26.1897C46.9139 26.1897 44.5317 23.3079 44.5317 19.7524C44.5317 16.1595 46.985 13.2777 50.4693 13.2777C52.8871 13.2777 54.6293 14.5876 55.6248 16.6461L60.2469 13.5771C58.2914 10.1339 54.7004 7.85094 50.4338 7.85094C43.9273 7.85094 39.1274 13.0157 39.1274 19.7899C39.1629 26.3768 43.6784 31.6913 50.4693 31.6913Z" fill="#216dfb"/>
<path fill-rule="evenodd" clip-rule="evenodd" d="M21.2435 3.6965C12.9948 3.6965 6.31049 10.7326 6.31049 19.4154C6.31049 28.0983 12.9948 35.1344 21.2435 35.1344C29.4922 35.1344 36.1765 28.0983 36.1765 19.4154C36.1409 10.7326 29.4922 3.6965 21.2435 3.6965ZM19.5013 14.6998C19.7146 14.812 19.7146 15.074 19.7146 15.1489V17.6938C19.7146 18.0307 19.5369 18.143 19.3591 18.143C19.288 18.143 19.1813 18.1055 19.1102 18.0681C15.1992 16.4214 11.5726 13.3524 12.177 11.0694C12.6392 9.38526 14.8792 8.37476 18.1858 8.37476C19.0035 8.37476 19.8924 8.44961 20.7813 8.56189C20.9235 8.59932 21.1368 8.71159 21.1013 8.93615C21.1013 9.04843 21.0302 9.19813 20.6746 9.19813C20.6391 9.19813 20.6035 9.19813 20.5679 9.19813C20.2835 9.16071 19.9991 9.16071 19.7146 9.16071C17.8302 9.16071 16.3369 9.90923 16.0525 11.0694C15.7325 12.3793 17.2613 14.0261 19.5013 14.6998ZM22.9501 32.028C22.9501 32.1403 22.9146 32.2152 22.8079 32.29C22.7723 32.3274 22.7012 32.3274 22.6657 32.3274C22.6301 32.3274 22.5946 32.3274 22.559 32.29L20.1057 31.1672C19.9991 31.1298 19.928 31.0175 19.928 30.9052V19.2283C19.928 19.116 19.9635 19.0412 20.0346 19.0038C20.0702 18.9663 20.1413 18.9663 20.1768 18.9663C20.2124 18.9663 20.248 18.9663 20.2835 19.0038L22.7368 20.0517C22.8434 20.0891 22.9146 20.2014 22.9146 20.3137V32.028H22.9501ZM28.1056 26.6012C27.0745 26.6012 25.8656 26.489 24.5501 26.227C24.0879 26.1521 24.0523 25.9276 24.0523 25.8153C24.0523 25.7779 24.0879 25.5533 24.479 25.5533C24.5145 25.5533 24.5856 25.5533 24.6212 25.5533C24.9412 25.5907 25.2612 25.6282 25.5456 25.6282C27.0745 25.6282 28.07 25.0668 28.3189 24.0563C28.6744 22.6715 26.3989 20.8751 23.9812 19.9394C23.7323 19.8646 23.6612 19.5652 23.6968 19.4154V16.833C23.6968 16.7208 23.6968 16.5711 23.8034 16.4588C23.8745 16.3839 23.9456 16.3839 24.0168 16.3839C24.1234 16.3839 24.2301 16.4214 24.4434 16.5336C28.8166 18.6669 33.1899 22.185 32.5854 24.5054C32.1943 25.8527 30.6299 26.6012 28.1056 26.6012Z" fill="#216dfb"/>
<path fill-rule="evenodd" clip-rule="evenodd" d="M28.461 35.6961C26.2566 36.7814 23.8388 37.3802 21.2433 37.3802C11.8213 37.3802 4.17707 29.3336 4.17707 19.4157C4.17707 12.1925 8.23031 5.97978 14.0257 3.1354L12.9591 0.777557C6.31035 4.03362 1.68823 11.182 1.68823 19.4157C1.68823 30.7933 10.4347 40.0001 21.2433 40.0001C24.1944 40.0001 27.0032 39.289 29.4921 38.0539L28.461 35.6961Z" fill="#216dfb"/>
</g>
<defs>
<clipPath id="clip0_34466_185616">
<rect width="103" height="40" fill="#216dfb"/>
</clipPath>
</defs>
</svg>
